<svg width="612" height="366" viewBox="0 0 612 366" fill="none" xmlns="http://www.w3.org/2000/svg">
    <g clip-path="url(#clip0)">
        <path d="M468.562 361.861C460.726 355.238 455.967 344.777 457.215 334.592C458.463 324.407 466.194 315.044 476.221 312.881C486.249 310.719 497.679 316.705 500.725 326.504C502.401 307.613 504.333 287.931 514.373 271.844C523.465 257.277 539.211 246.854 556.277 244.99C573.342 243.125 591.31 250.168 601.954 263.641C612.597 277.115 615.203 296.703 607.748 312.172C602.257 323.567 592.14 332.048 581.54 338.947C547.288 361.054 506.207 370.044 465.856 364.263L468.562 361.861Z" fill="#F2F2F2"/>
        <path d="M585.078 250.558C570.996 262.031 558.078 274.862 546.51 288.867C528.406 310.709 513.756 335.198 503.071 361.48C502.289 363.397 505.401 364.232 506.175 362.336C523.658 319.621 551.569 281.973 587.354 252.835C588.961 251.526 586.671 249.26 585.078 250.558Z" fill="white"/>
        <path d="M197.013 360.062C207.774 350.965 214.311 336.596 212.597 322.607C210.883 308.619 200.265 295.759 186.492 292.788C172.72 289.817 157.02 298.04 152.836 311.498C150.534 285.552 147.881 258.519 134.091 236.423C121.603 216.416 99.9757 202.1 76.536 199.539C53.0963 196.978 28.4174 206.65 13.7989 225.157C-0.819585 243.663 -4.39885 270.567 5.83954 291.814C13.3818 307.465 27.2773 319.113 41.8364 328.59C88.2847 358.823 145.904 371.432 200.729 363.361" fill="#F2F2F2"/>
        <path d="M36.9779 207.187C56.3186 222.945 74.0616 240.569 89.9503 259.804C105.842 279.019 119.832 299.731 131.725 321.649C138.373 333.944 144.345 346.592 149.614 359.538C150.689 362.172 146.414 363.318 145.351 360.714C136.018 337.89 124.471 316.036 110.876 295.466C97.3468 274.97 81.862 255.835 64.6391 238.33C54.8978 228.434 44.6198 219.081 33.8518 210.314C31.6447 208.516 34.789 205.404 36.9779 207.187L36.9779 207.187Z" fill="white"/>
        <path d="M439.303 365.199H182.545V101.679C182.545 45.6128 228.144 0 284.193 0H337.655C393.704 0 439.303 45.6128 439.303 101.679V365.199Z" fill="#F2F2F2"/>
        <path d="M385.841 365.199H182.545V101.679C182.489 80.1955 189.289 59.2553 201.957 41.9069C202.424 41.2702 202.89 40.6418 203.37 40.0202C209.497 31.9817 216.789 24.9023 225.004 19.0156C225.468 18.6779 225.934 18.346 226.407 18.0141C233.281 13.2555 240.717 9.36551 248.546 6.43257C249.011 6.25631 249.484 6.0797 249.957 5.91031C257.038 3.38282 264.377 1.6515 271.841 0.748323C272.303 0.685099 272.778 0.635626 273.253 0.586152C280.526 -0.191722 287.861 -0.191722 295.134 0.586152C295.608 0.635626 296.083 0.685093 296.551 0.749C304.013 1.65224 311.35 3.38334 318.429 5.91034C318.902 6.07973 319.376 6.25633 319.842 6.43293C327.574 9.32888 334.922 13.1609 341.724 17.8433C342.196 18.168 342.669 18.4999 343.135 18.8318C347.74 22.1198 352.065 25.7829 356.067 29.7836C359.276 32.9925 362.266 36.4131 365.018 40.0224C365.497 40.6418 365.962 41.2702 366.428 41.9059C379.096 59.2545 385.897 80.1951 385.841 101.679V365.199Z" fill="#CCCCCC"/>
        <path d="M369.31 247.336C375.526 247.336 380.566 242.295 380.566 236.077C380.566 229.86 375.526 224.819 369.31 224.819C363.094 224.819 358.055 229.86 358.055 236.077C358.055 242.295 363.094 247.336 369.31 247.336Z" fill="#627CD0"/>
        <path d="M418.27 357.306H409.645L405.542 324.031L418.271 324.032L418.27 357.306Z" fill="#FFB8B8"/>
        <path d="M403.485 354.841H420.117V365.316H393.013C393.013 363.94 393.284 362.578 393.81 361.307C394.336 360.036 395.108 358.882 396.08 357.909C397.053 356.936 398.207 356.165 399.478 355.638C400.748 355.112 402.11 354.841 403.485 354.841Z" fill="#2F2E41"/>
        <path d="M461.18 357.306H452.556L448.453 324.031L461.181 324.032L461.18 357.306Z" fill="#FFB8B8"/>
        <path d="M446.395 354.841H463.028V365.316H435.923C435.923 363.94 436.194 362.578 436.72 361.307C437.247 360.036 438.018 358.882 438.99 357.909C439.963 356.936 441.117 356.165 442.388 355.638C443.658 355.112 445.02 354.841 446.395 354.841Z" fill="#2F2E41"/>
        <path d="M375.007 238.308C374.386 237.393 373.974 236.354 373.798 235.263C373.623 234.172 373.689 233.056 373.991 231.993C374.294 230.93 374.826 229.946 375.549 229.111C376.273 228.276 377.171 227.61 378.18 227.16L407.496 146.333L421.922 154.208L388.449 231.449C389.093 233.194 389.074 235.115 388.397 236.848C387.719 238.581 386.43 240.005 384.773 240.851C383.116 241.696 381.207 241.904 379.407 241.436C377.607 240.967 376.041 239.854 375.007 238.308Z" fill="#FFB8B8"/>
        <path d="M456.775 253.496C455.816 252.946 454.99 252.193 454.354 251.289C453.718 250.385 453.288 249.353 453.094 248.265C452.9 247.177 452.947 246.06 453.231 244.992C453.515 243.924 454.03 242.932 454.74 242.085L445.658 156.583L462.074 157.334L465.849 241.435C467.193 242.722 468.018 244.456 468.169 246.311C468.32 248.165 467.785 250.011 466.667 251.497C465.548 252.984 463.924 254.008 462.1 254.377C460.277 254.745 458.382 254.431 456.775 253.496Z" fill="#FFB8B8"/>
        <path d="M430.585 131.362C440.127 131.362 447.862 123.624 447.862 114.079C447.862 104.534 440.127 96.7964 430.585 96.7964C421.043 96.7964 413.307 104.534 413.307 114.079C413.307 123.624 421.043 131.362 430.585 131.362Z" fill="#FFB8B8"/>
        <path d="M456.664 234.05H404.576L404.639 233.645C404.732 233.038 413.922 172.821 407.144 153.121C406.464 151.185 406.524 149.066 407.312 147.171C408.1 145.276 409.561 143.741 411.414 142.859H411.414C421.102 138.295 439.698 132.676 455.394 146.313C457.703 148.353 459.507 150.902 460.662 153.76C461.817 156.617 462.291 159.704 462.048 162.776L456.664 234.05Z" fill="#627CD0"/>
        <path d="M414.58 181.72L391.13 176.961L402.122 150.905C402.78 148.381 404.411 146.222 406.659 144.9C408.907 143.578 411.586 143.201 414.111 143.853C416.636 144.505 418.798 146.132 420.125 148.377C421.452 150.622 421.835 153.302 421.189 155.829L414.58 181.72Z" fill="#627CD0"/>
        <path d="M444.615 190.556L443.205 158.229C442.136 152.152 445.614 146.408 450.962 145.469C456.312 144.533 461.536 148.748 462.61 154.87L467.909 185.076L444.615 190.556Z" fill="#627CD0"/>
        <path d="M454.931 230.18C463.313 262.11 464.227 302.706 461.966 346.987L450.711 345.58L430.311 261.141L419.055 346.987L406.393 346.284C402.611 299.821 398.927 259.934 404.986 233.698L454.931 230.18Z" fill="#2F2E41"/>
        <path d="M441.969 127.435C438.746 130.87 432.76 129.026 432.34 124.334C432.307 123.97 432.309 123.603 432.347 123.24C432.564 121.161 433.764 119.274 433.477 117.08C433.412 116.534 433.208 116.013 432.886 115.568C430.317 112.128 424.288 117.107 421.864 113.992C420.377 112.083 422.125 109.076 420.984 106.941C419.479 104.124 415.02 105.514 412.223 103.971C409.112 102.254 409.298 97.4796 411.346 94.5752C413.844 91.0333 418.223 89.1433 422.548 88.8709C426.872 88.5986 431.167 89.7679 435.204 91.3418C439.792 93.13 444.34 95.6014 447.163 99.6362C450.596 104.543 450.927 111.14 449.21 116.877C448.165 120.367 444.601 124.631 441.969 127.435Z" fill="#2F2E41"/>
        <path d="M590.884 365.652H71.5319C71.3102 365.651 71.0978 365.562 70.9412 365.405C70.7847 365.248 70.6968 365.036 70.6968 364.814C70.6968 364.592 70.7847 364.379 70.9412 364.222C71.0978 364.065 71.3102 363.977 71.5319 363.976H590.884C591.105 363.977 591.318 364.065 591.474 364.222C591.631 364.379 591.719 364.592 591.719 364.814C591.719 365.036 591.631 365.248 591.474 365.405C591.318 365.562 591.105 365.651 590.884 365.652Z" fill="#3F3D56"/>
        <path d="M329.917 288.852H238.469C237.265 288.858 236.107 288.387 235.25 287.54C234.392 286.694 233.906 285.542 233.897 284.338V80.1575C233.906 78.9528 234.392 77.8009 235.25 76.9547C236.107 76.1084 237.265 75.6368 238.469 75.6433H329.917C331.122 75.6368 332.279 76.1084 333.137 76.9547C333.994 77.8009 334.48 78.9528 334.49 80.1575V284.338C334.48 285.542 333.994 286.694 333.137 287.54C332.279 288.387 331.122 288.858 329.917 288.852Z" fill="white"/>
        <path d="M334.49 141.71H233.896V143.117H334.49V141.71Z" fill="#CCCCCC"/>
        <path d="M334.841 222.004H234.248V223.412H334.841V222.004Z" fill="#CCCCCC"/>
        <path d="M266.959 75.6433H265.552V289.556H266.959V75.6433Z" fill="#CCCCCC"/>
        <path d="M302.131 75.6433H300.724V289.556H302.131V75.6433Z" fill="#CCCCCC"/>
    </g>
    <defs>
        <clipPath id="clip0">
            <rect width="612" height="366" fill="white"/>
        </clipPath>
    </defs>
</svg>
